<svg width="14" height="16" viewBox="0 0 14 16" fill="none" xmlns="http://www.w3.org/2000/svg">
<path d="M0.5 15.5V0.5H10.5L13.5 3.5V15.5H0.5Z" fill="white"/>
<path d="M13.5 3.5V15.5H0.5V0.5H10.5M13.5 3.5L10.5 0.5M13.5 3.5H10.5V0.5" stroke="#D0D6D8"/>
<path fill-rule="evenodd" clip-rule="evenodd" d="M7.29457 13.0588L6.33415 12.1581C6.20526 12.334 6.03661 12.4773 5.84184 12.5763C5.6373 12.6836 5.39787 12.7372 5.12355 12.7371C4.89906 12.7396 4.6765 12.6958 4.46982 12.6084C4.27572 12.5262 4.10112 12.4043 3.95733 12.2505C3.81038 12.0907 3.69656 11.9034 3.62239 11.6996C3.53954 11.4729 3.49853 11.2331 3.50133 10.9919C3.49875 10.7546 3.53978 10.5188 3.62239 10.2962C3.69827 10.0923 3.81342 9.90513 3.96136 9.74526C4.10783 9.58897 4.28503 9.46442 4.48192 9.37938C4.6921 9.2892 4.91894 9.24399 5.14776 9.24667C5.36937 9.24692 5.58876 9.29065 5.79342 9.37536C5.99686 9.45621 6.17316 9.59285 6.30187 9.76945L7.23808 8.8365C6.99595 8.56305 6.67985 8.35528 6.28977 8.21319C5.51205 7.93033 4.65931 7.92891 3.88065 8.20917C3.51566 8.34148 3.18089 8.54515 2.89603 8.80823C2.61248 9.07362 2.38834 9.39566 2.23826 9.7533C2.07958 10.1233 2.00023 10.5361 2.00023 10.9919C1.99511 11.4109 2.07466 11.8266 2.23417 12.2144C2.38111 12.5726 2.60067 12.8969 2.8791 13.1667C3.15754 13.4366 3.48886 13.6463 3.85235 13.7827C4.24276 13.9304 4.65747 14.0041 5.07506 13.9998C5.55931 13.9998 5.98705 13.9154 6.35831 13.7465C6.71647 13.5872 7.03584 13.3526 7.29451 13.0588L7.29457 13.0588ZM11.919 11.739C11.8661 11.5986 11.7897 11.4683 11.6931 11.3534C11.5941 11.2365 11.4769 11.1361 11.346 11.0562C11.209 10.9722 11.059 10.9111 10.9021 10.8755V10.8514C11.1731 10.7818 11.4148 10.6281 11.5922 10.4125C11.7724 10.195 11.8625 9.92788 11.8626 9.61095C11.8626 9.33704 11.8048 9.09945 11.6891 8.89819C11.5756 8.69935 11.42 8.52755 11.2331 8.39476C11.0389 8.25781 10.8216 8.15682 10.5915 8.09663C10.3507 8.03208 10.1023 7.99959 9.85299 8C9.61852 7.99974 9.38507 8.03085 9.15891 8.09249C8.93788 8.15199 8.72704 8.24416 8.53343 8.36594C8.34291 8.48611 8.17493 8.63853 8.03708 8.81633C7.89266 9.00482 7.78582 9.21913 7.72232 9.44768L8.98135 9.73722C9.0175 9.55554 9.11594 9.39205 9.25979 9.27477C9.40215 9.15955 9.58085 9.0983 9.76421 9.10185C9.94436 9.09926 10.1203 9.15616 10.2646 9.26369C10.4099 9.37165 10.4825 9.5281 10.4825 9.73305C10.4825 9.87329 10.4542 9.9866 10.3977 10.073C10.3409 10.1595 10.2632 10.2305 10.1717 10.2793C10.0723 10.3323 9.9645 10.3679 9.85299 10.3845C9.73014 10.4037 9.60597 10.4132 9.48162 10.4128H9.08627V11.394H9.44945C9.59013 11.394 9.73054 11.4062 9.86913 11.4302C9.99962 11.4513 10.1262 11.4919 10.2444 11.5508C10.351 11.6039 10.4425 11.6827 10.5108 11.78C10.5811 11.8874 10.6164 12.0138 10.6116 12.1419C10.6155 12.2592 10.5891 12.3755 10.535 12.4797C10.4875 12.5667 10.4213 12.6422 10.3413 12.7009C10.2609 12.7583 10.1706 12.8006 10.0749 12.8256C9.97897 12.8519 9.8799 12.8655 9.78035 12.8658C9.52209 12.8658 9.3096 12.7947 9.14288 12.6527C8.98528 12.5246 8.86998 12.3523 8.81198 12.158L7.55295 12.4878C7.67863 12.9712 7.99033 13.3858 8.42055 13.6419C8.6288 13.7651 8.85468 13.856 9.09042 13.9113C9.33755 13.9706 9.59087 14.0003 9.84504 13.9998C10.1084 13.9998 10.3706 13.9633 10.6239 13.8913C10.8715 13.8229 11.1051 13.7114 11.314 13.5621C11.5193 13.4137 11.6889 13.2217 11.8103 12.9998C11.9367 12.7724 11.9999 12.5033 12 12.1926C12.0009 12.0378 11.9734 11.884 11.919 11.739Z" fill="#565656"/>
<rect x="5" y="3" width="1" height="1" transform="rotate(-90 5 3)" fill="#565656"/>
<rect x="4" y="2" width="1" height="1" transform="rotate(-90 4 2)" fill="#565656"/>
<rect x="4" y="4" width="1" height="1" transform="rotate(-90 4 4)" fill="#565656"/>
<rect x="4" y="6" width="2" height="2" transform="rotate(-90 4 6)" fill="#565656"/>
</svg>
